<svg width="10" height="10" viewBox="0 0 10 10" fill="none" xmlns="http://www.w3.org/2000/svg">
<path fill-rule="evenodd" clip-rule="evenodd" d="M5.18742 7.86448L8.05683 4.99507C8.1149 4.93696 8.18385 4.89085 8.25974 4.85939C8.33563 4.82792 8.41697 4.81171 8.49912 4.81168C8.58127 4.81165 8.66262 4.82781 8.73853 4.85922C8.81444 4.89063 8.88342 4.93668 8.94153 4.99475C8.99964 5.05282 9.04575 5.12177 9.07721 5.19766C9.10868 5.27355 9.12489 5.35489 9.12492 5.43704C9.12495 5.51919 9.10879 5.60054 9.07738 5.67645C9.04597 5.75236 8.99992 5.82134 8.94185 5.87945L5.00429 9.81701C4.88709 9.93418 4.72814 10 4.56241 10C4.39668 10 4.23774 9.93418 4.12053 9.81701L0.18298 5.87945C0.0657026 5.76201 -0.000117056 5.60279 1.5628e-07 5.43682C0.000117368 5.27085 0.0661619 5.11172 0.183605 4.99444C0.301047 4.87716 0.460268 4.81135 0.62624 4.81146C0.792212 4.81158 0.951339 4.87762 1.06862 4.99507L3.9374 7.86448V0.625008C3.9374 0.459246 4.00325 0.300273 4.12047 0.183061C4.23768 0.0658489 4.39665 0 4.56241 0C4.72818 0 4.88715 0.0658489 5.00436 0.183061C5.12157 0.300273 5.18742 0.459246 5.18742 0.625008V7.86448Z" />
</svg>
