<svg width="10" height="10" viewBox="0 0 10 10" fill="none" xmlns="http://www.w3.org/2000/svg">
<path fill-rule="evenodd" clip-rule="evenodd" d="M5.18742 2.13552L8.05683 5.00493C8.1149 5.06304 8.18385 5.10915 8.25974 5.14061C8.33563 5.17208 8.41697 5.18829 8.49912 5.18832C8.58127 5.18835 8.66262 5.17219 8.73853 5.14078C8.81444 5.10937 8.88342 5.06332 8.94153 5.00525C8.99964 4.94718 9.04575 4.87823 9.07721 4.80234C9.10868 4.72645 9.12489 4.64511 9.12492 4.56296C9.12495 4.48081 9.10879 4.39946 9.07738 4.32355C9.04597 4.24764 8.99992 4.17866 8.94185 4.12055L5.00429 0.182994C4.88709 0.0658236 4.72814 0 4.56241 0C4.39668 0 4.23774 0.0658236 4.12053 0.182994L0.18298 4.12055C0.0657026 4.23799 -0.000117056 4.39721 1.5628e-07 4.56318C0.000117368 4.72915 0.0661619 4.88828 0.183605 5.00556C0.301047 5.12284 0.460268 5.18865 0.62624 5.18854C0.792212 5.18842 0.951339 5.12238 1.06862 5.00493L3.9374 2.13552V9.37499C3.9374 9.54075 4.00325 9.69973 4.12047 9.81694C4.23768 9.93415 4.39665 10 4.56241 10C4.72818 10 4.88715 9.93415 5.00436 9.81694C5.12157 9.69973 5.18742 9.54075 5.18742 9.37499V2.13552Z" />
</svg>
