<svg width="15" height="15" viewBox="0 0 12 12" fill="none" xmlns="http://www.w3.org/2000/svg">
<path d="M0.751953 3V2.25C0.751953 2.05109 0.830971 1.86032 0.971623 1.71967C1.11228 1.57902 1.30304 1.5 1.50195 1.5H4.50045C4.50045 1.10218 4.65849 0.720644 4.93979 0.43934C5.2211 0.158035 5.60263 0 6.00045 0C6.39828 0 6.77981 0.158035 7.06111 0.43934C7.34242 0.720644 7.50045 1.10218 7.50045 1.5H10.5042C10.7031 1.5 10.8939 1.57902 11.0345 1.71967C11.1752 1.86032 11.2542 2.05109 11.2542 2.25V3H0.751953ZM1.87545 4.5H10.1255L9.78645 11.2875C9.77682 11.4798 9.69358 11.6611 9.55395 11.7938C9.41433 11.9264 9.22904 12.0002 9.03645 12H2.96445C2.772 12 2.58689 11.9261 2.44743 11.7935C2.30797 11.6609 2.22483 11.4797 2.2152 11.2875L1.87545 4.5Z" />
</svg>
