<svg id="Capa_1" enable-background="new 0 0 512 512" height="14" viewBox="0 0 512 512" width="14" xmlns="http://www.w3.org/2000/svg"><g><path d="m203.556 345.012 70.71-212.133c2.619-7.859-1.628-16.354-9.487-18.974-7.858-2.619-16.354 1.628-18.974 9.487l-70.71 212.133c-2.619 7.859 1.628 16.354 9.487 18.974 1.573.524 3.173.773 4.745.773 6.28.001 12.133-3.974 14.229-10.26z"/><path d="m309.533 279.203c24.813 0 45-20.187 45-45s-20.187-45-45-45-45 20.187-45 45 20.187 45 45 45zm0-60c8.271 0 15 6.729 15 15s-6.729 15-15 15-15-6.729-15-15 6.729-15 15-15z"/><path d="m139.827 189.203c-24.813 0-45 20.187-45 45s20.187 45 45 45 45-20.187 45-45-20.186-45-45-45zm0 60c-8.271 0-15-6.729-15-15s6.729-15 15-15 15 6.729 15 15-6.728 15-15 15z"/><path d="m509 186-52.307-69.743 2.041-14.283c.667-4.674-.904-9.39-4.243-12.728l-31.82-31.82 31.819-31.82c5.858-5.857 5.858-15.355 0-21.213-5.857-5.857-15.355-5.857-21.213 0l-31.819 31.82-31.82-31.82c-3.338-3.339-8.054-4.905-12.728-4.243l-148.493 21.213c-3.213.459-6.19 1.948-8.485 4.243l-183.848 183.848c-21.445 21.444-21.445 56.338 0 77.782l155.563 155.564c3.182 3.182 6.666 5.881 10.353 8.118v6.082c0 30.327 24.673 55 55 55h220c30.327 0 55-24.673 55-55v-262c0-3.245-1.053-6.404-3-9zm-471.703 80.023c-9.748-9.748-9.748-25.608 0-35.356l180.312-180.312 136.118-19.445 26.517 26.517-21.213 21.213-10.607-10.607c-5.857-5.857-15.355-5.857-21.213 0s-5.858 15.355 0 21.213l42.427 42.427c2.929 2.929 6.768 4.394 10.606 4.394s7.678-1.465 10.606-4.394c5.858-5.857 5.858-15.355 0-21.213l-10.607-10.607 21.213-21.213 26.517 26.517-19.446 136.118-180.311 180.312c-4.722 4.722-11 7.322-17.678 7.322s-12.956-2.601-17.678-7.322zm444.703 190.977c0 13.785-11.215 25-25 25h-220c-13.164 0-23.976-10.228-24.925-23.154 13.567-.376 27.022-5.714 37.353-16.046l183.848-183.848c2.295-2.295 3.784-5.272 4.243-8.485l13.173-92.21 31.308 41.743z"/></g></svg>