<svg width="10" height="10" viewBox="0 0 10 10" fill="none" xmlns="http://www.w3.org/2000/svg">
<path fill-rule="evenodd" clip-rule="evenodd" d="M9.48283 2.68627L7.31465 0.517731L7.36894 0.46344C7.51057 0.318006 7.67968 0.20215 7.86645 0.122599C8.05323 0.043048 8.25394 0.00138679 8.45695 3.40367e-05C8.65996 -0.00131871 8.86122 0.0376639 9.04904 0.114719C9.23685 0.191774 9.40749 0.305365 9.55104 0.4489C9.6946 0.592434 9.8082 0.763051 9.88527 0.950845C9.96233 1.13864 10.0013 1.33987 9.99997 1.54285C9.99861 1.74584 9.95695 1.94653 9.87738 2.13328C9.79782 2.32003 9.68195 2.48912 9.5365 2.63073L9.48283 2.68627ZM8.5997 3.56866L2.81789 9.34975L0 10L0.650329 7.18246L6.43214 1.40137L8.5997 3.56866Z" fill="#454B54"/>
</svg>
