<?xml version="1.0" encoding="iso-8859-1"?>
<!-- Generator: Adobe Illustrator 19.0.0, SVG Export Plug-In . SVG Version: 6.00 Build 0)  -->
<svg height="14" width="14" version="1.1" id="Capa_1" xmlns="http://www.w3.org/2000/svg" xmlns:xlink="http://www.w3.org/1999/xlink" x="0px" y="0px"
	 viewBox="0 0 512 512" style="enable-background:new 0 0 512 512;" xml:space="preserve">
<g>
	<g>
		<path d="M467,76H45C20.187,76,0,96.187,0,121v270c0,24.813,20.187,45,45,45h422c24.813,0,45-20.187,45-45V121
			C512,96.187,491.813,76,467,76z M150,406H45c-8.271,0-15-6.729-15-15V226h32.455c7.484,22.346,30.428,35.806,53.684,31.25
			l-23.62,35.43c-4.595,6.893-2.732,16.206,4.161,20.801c6.892,4.594,16.206,2.732,20.801-4.161L150,260.542V406z M90,210.979
			c0-13.656,15.188-21.828,26.585-14.228L137.958,211l-21.373,14.249C105.227,232.821,90,224.738,90,210.979z M150,182.972
			l-16.774-11.183c-25.897-17.265-60.963-5.066-70.766,24.21H30v-75C30,112.729,36.729,106,45,106h105V182.972z M482,391.001
			c0,8.27-6.729,14.999-15,14.999H180V260.542l32.519,48.779c4.601,6.901,13.917,8.751,20.801,4.161
			c6.893-4.596,8.756-13.909,4.161-20.801l-23.62-35.43c23.15,4.534,46.161-8.798,53.679-31.25H482V391.001z M192.042,211
			l21.373-14.249C224.774,189.178,240,197.262,240,211.02c0,13.679-15.209,21.814-26.585,14.228L192.042,211z M482,196H267.545
			c-9.805-29.273-44.871-41.477-70.771-24.21L180,182.972V106h287c8.271,0,15,6.729,15,15V196z"/>
	</g>
</g>
<g>
	<g>
		<path d="M437,286H315c-8.284,0-15,6.716-15,15s6.716,15,15,15h122c8.284,0,15-6.716,15-15S445.284,286,437,286z"/>
	</g>
</g>
<g>
	<g>
		<path d="M437,346H315c-8.284,0-15,6.716-15,15s6.716,15,15,15h122c8.284,0,15-6.716,15-15S445.284,346,437,346z"/>
	</g>
</g>
<g>
</g>
<g>
</g>
<g>
</g>
<g>
</g>
<g>
</g>
<g>
</g>
<g>
</g>
<g>
</g>
<g>
</g>
<g>
</g>
<g>
</g>
<g>
</g>
<g>
</g>
<g>
</g>
<g>
</g>
</svg>
