<svg width="12" height="12" viewBox="0 0 12 12" fill="none" xmlns="http://www.w3.org/2000/svg">
<path fill-rule="evenodd" clip-rule="evenodd" d="M2 0C0.895431 0 0 0.895431 0 2V10C0 11.1046 0.895431 12 2 12H10C11.1046 12 12 11.1046 12 10V2C12 0.895431 11.1046 0 10 0H2ZM3.99121 5.00293V4.2168H6.69141V8.71875H8.41504V9.5H3.99121V8.71875H5.78809V5.00293H3.99121ZM5.80273 3.19629C5.71484 3.09863 5.6709 2.97656 5.6709 2.83008C5.6709 2.75195 5.68229 2.67871 5.70508 2.61035C5.73112 2.54199 5.77018 2.4834 5.82227 2.43457C5.86458 2.39225 5.91829 2.3597 5.9834 2.33691C6.05176 2.31087 6.12826 2.29785 6.21289 2.29785C6.29753 2.29785 6.3724 2.31087 6.4375 2.33691C6.5026 2.3597 6.55631 2.39225 6.59863 2.43457C6.65072 2.48014 6.68978 2.53711 6.71582 2.60547C6.74186 2.67383 6.75488 2.7487 6.75488 2.83008C6.75488 2.97656 6.70931 3.09863 6.61816 3.19629C6.52702 3.29395 6.39193 3.34277 6.21289 3.34277C6.0306 3.34277 5.89388 3.29395 5.80273 3.19629Z" fill="current" />
</svg>
