<?xml version="1.0" encoding="UTF-8"?>
<svg viewBox="0 0 73 73" version="1.1" xmlns="http://www.w3.org/2000/svg" xmlns:xlink="http://www.w3.org/1999/xlink">
    <g id="Medusa" stroke="none" stroke-width="1" fill="none" fill-rule="evenodd">
        <g id="Artboard" transform="translate(-23.000000, -14.000000)" stroke="#454B54">
            <g id="Icon-2" transform="translate(24.000000, 15.000000)">
                <g id="Icon">
                    <path d="M70.4285714,0 C70.9808562,3.82276611e-15 71.4285714,0.44771525 71.4285714,1 L71.4285714,52.5714286 C71.4285714,53.1237133 70.9808562,53.5714286 70.4285714,53.5714286 L53.571,53.571 L53.5714286,18.8571429 C53.5714286,18.344307 53.1853884,17.9216357 52.6880497,17.8638706 L52.5714286,17.8571429 L17.857,17.857 L17.8571429,1 C17.8571429,0.44771525 18.3048581,1.01453063e-16 18.8571429,0 L70.4285714,0 Z" id="Cobined-Shape" stroke-width="0.642857143" fill="#454B54"></path>
                    <path d="M1,17.8571429 L52.5714286,17.8571429 C53.1237133,17.8571429 53.5714286,18.3048581 53.5714286,18.8571429 L53.5714286,70.4285714 C53.5714286,70.9808562 53.1237133,71.4285714 52.5714286,71.4285714 L1,71.4285714 C0.44771525,71.4285714 3.99185455e-15,70.9808562 0,70.4285714 L0,18.8571429 C-6.76353751e-17,18.3048581 0.44771525,17.8571429 1,17.8571429 Z" id="Rectangle" stroke-width="1.07142857"></path>
                </g>
            </g>
        </g>
    </g>
</svg>
