<?xml version="1.0" encoding="UTF-8"?>
<svg viewBox="0 0 224 29" version="1.1" xmlns="http://www.w3.org/2000/svg" xmlns:xlink="http://www.w3.org/1999/xlink">
    <g id="Symbols" stroke="none" stroke-width="1" fill="red" fill-rule="evenodd">
        <g id="Text" transform="translate(-113.000000, 0.000000)" fill-rule="nonzero">
            <path d="M263.023,0.00134542655 L263.023836,12.2873912 C263.023836,17.7731055 261.747645,21.8302484 259.195264,24.4588198 C256.642883,27.0873912 252.928598,28.401677 248.052407,28.401677 C243.176217,28.401677 239.461931,27.0873912 236.90955,24.4588198 C234.434514,21.9099021 233.159495,18.0176811 233.084494,12.7821571 L233.080979,12.2873912 L233.08,0.00134542655 L234.223,0.00134542655 L234.223836,12.2873912 C234.223836,17.0378674 235.273973,20.6848092 237.374248,23.2282166 L237.595264,23.4873912 C239.842883,26.0397722 243.328598,27.3159627 248.052407,27.3159627 C252.776217,27.3159627 256.261931,26.0397722 258.50955,23.4873912 C260.682248,21.0200896 261.804809,17.4492537 261.877233,12.7748833 L261.880979,12.2873912 L261.88,0.00134542655 L263.023,0.00134542655 Z M272.82187,0.00234550753 C272.942217,0.2232373 273.075679,0.432538257 273.222257,0.63024838 C274.041305,1.73501028 275.107971,2.63024838 276.422257,3.31596267 C277.736543,4.00167695 279.231781,4.53501028 280.907971,4.91596267 C282.584162,5.29691505 284.298448,5.69691505 286.050829,6.11596267 L287.92067,6.60485155 C289.14395,6.92654468 290.32067,7.23977219 291.450829,7.54453409 C293.146067,8.00167695 294.622257,8.61120076 295.8794,9.37310552 C297.136543,10.1350103 298.136543,11.1445341 298.8794,12.401677 C299.622257,13.6588198 299.993686,15.3540579 299.993686,17.4873912 C299.993686,19.4302484 299.574638,21.0873912 298.736543,22.4588198 C297.898448,23.8302484 296.793686,24.9635817 295.422257,25.8588198 C294.050829,26.7540579 292.507971,27.401677 290.793686,27.801677 C289.0794,28.201677 287.346067,28.401677 285.593686,28.401677 C283.269876,28.401677 281.127019,28.1350103 279.165114,27.601677 C277.20321,27.0683436 275.507971,26.2207246 274.0794,25.0588198 C272.650829,23.896915 271.546067,22.401677 270.765114,20.5731055 C270.032971,18.8588198 269.660762,16.8097127 269.648485,14.4257841 L269.650829,13.9445341 L270.793686,13.9445341 C270.793686,16.3826293 271.15559,18.449296 271.8794,20.1445341 C272.60321,21.8397722 273.622257,23.2207246 274.936543,24.2873912 C276.250829,25.3540579 277.812733,26.1254865 279.622257,26.601677 C281.431781,27.0778674 283.422257,27.3159627 285.593686,27.3159627 C287.193686,27.3159627 288.784162,27.1350103 290.365114,26.7731055 C291.946067,26.4112008 293.365114,25.8302484 294.622257,25.0302484 C295.8794,24.2302484 296.898448,23.201677 297.6794,21.9445341 C298.460352,20.6873912 298.850829,19.1826293 298.850829,17.4302484 C298.850829,15.3731055 298.40321,13.7445341 297.507971,12.5445341 C296.612733,11.3445341 295.469876,10.3921531 294.0794,9.68739124 C292.688924,8.98262933 291.146067,8.449296 289.450829,8.08739124 C287.75559,7.72548647 286.127019,7.3540579 284.565114,6.97310552 C282.927019,6.59215314 281.288924,6.19215314 279.650829,5.77310552 C278.012733,5.3540579 276.536543,4.77310552 275.222257,4.03024838 C273.907971,3.28739124 272.850829,2.29691505 272.050829,1.05881981 C271.839765,0.732173405 271.656543,0.379673286 271.501164,0.00131945258 L272.82187,0.00234550753 Z M151.4,0.00134542655 L151.4,27.4873912 L150.257143,27.4873912 L150.257,0.00134542655 L151.4,0.00134542655 Z M144.915,0.00134542655 L132.828571,27.4873912 L131.571429,27.4873912 L119.484,0.00134542655 L120.729,0.00134542655 L132.142857,26.001677 L132.257143,26.001677 L143.67,0.00134542655 L144.915,0.00134542655 Z M114.142,0.00134542655 L114.142857,27.4873912 L113,27.4873912 L113,0.00134542655 L114.142,0.00134542655 Z M161.312,0.00134542655 L161.312707,5.65881981 L185.712707,5.65881981 L185.712707,6.80167695 L161.312707,6.80167695 L161.312707,26.3445341 L187.484136,26.3445341 L187.484136,27.4873912 L160.16985,27.4873912 L160.169,0.00134542655 L161.312,0.00134542655 Z M224.412336,-5.68434189e-14 C224.878198,2.05753619 225.111129,4.41999993 225.111129,7.08739124 C225.111129,10.7445341 224.577795,13.8683436 223.511129,16.4588198 C222.444462,19.049296 221.01589,21.1540579 219.225414,22.7731055 C217.434938,24.3921531 215.396843,25.5826293 213.111129,26.3445341 C211.001238,27.0478308 208.810199,27.426529 206.538009,27.4806288 L205.968271,27.4873912 L193.453986,27.4873912 L193.453,0.00134542655 L194.596,0.00134542655 L194.596843,26.3445341 L206.253986,26.3445341 C208.653986,26.3445341 210.930176,25.9540579 213.082557,25.1731055 C215.234938,24.3921531 217.120652,23.2112008 218.7397,21.6302484 C220.358748,20.049296 221.634938,18.049296 222.568271,15.6302484 C223.501605,13.2112008 223.968271,10.3635817 223.968271,7.08739124 C223.968271,4.39107172 223.72972,2.02872422 223.252617,0.000348717784 L224.412336,-5.68434189e-14 Z M325.85,0.00134542655 L336.706393,27.4873912 L335.44925,27.4873912 L330.077821,14.0588198 L309.277821,14.0588198 L303.84925,27.4873912 L302.592107,27.4873912 L313.717,0.00134542655 L314.912,0.00134542655 L309.734964,12.9159627 L329.620679,12.9159627 L324.619,0.00134542655 L325.85,0.00134542655 Z" id="Shape"></path>
        </g>
    </g>
</svg>
