<svg id="Layer_1" enable-background="new 0 0 512 512" height="14" viewBox="0 0 512 512" width="14" xmlns="http://www.w3.org/2000/svg"><g><path d="m511.9 126.269c-.598-5.507-4.02-10.381-9.135-12.768l-240-112c-4.289-2.001-9.243-2.001-13.532 0l-240 112c-5.114 2.387-8.536 7.26-9.135 12.768-.013.115-.098 1.647-.098 1.731v272c0 6.542 3.983 12.426 10.058 14.855l240 96c1.907.763 3.925 1.145 5.942 1.145s4.035-.381 5.942-1.145l240-96c6.075-2.429 10.058-8.313 10.058-14.855v-272c0-.084-.087-1.617-.1-1.731zm-255.9-92.613 199.744 93.214-76.914 30.766-203.503-86.332zm-119.69 55.856 200.346 84.993-80.656 32.262-199.744-79.897zm-104.31 62.12 208 83.2v237.535l-208-83.2zm240 320.736v-237.536l208-83.2v237.535z"/></g></svg>