<svg id="Layer_1" display="block" enable-background="new 0 0 16 16" height="14" viewBox="0 0 16 16" width="14" xmlns="http://www.w3.org/2000/svg">
  <g>
    <path
      d="M8 11a5.698 5.698 0 0 0 3.9-1.537l1.76.66A3.608 3.608 0 0 1 16 13.5V15a1 1 0 0 1-1 1H1a1 1 0 0 1-1-1v-1.5c0-1.504.933-2.85 2.34-3.378l1.76-.66A5.698 5.698 0 0 0 8 11zM7.804 0h.392a3.5 3.5 0 0 1 3.488 3.79l-.164 1.971a3.532 3.532 0 0 1-7.04 0l-.164-1.97A3.5 3.5 0 0 1 7.804 0z"
      fill-rule="evenodd"
    ></path>
  </g>
</svg>