<svg width="14" height="14" viewBox="0 0 14 14" version="2" xmlns="http://www.w3.org/2000/svg"><path fill="red" d="M4 7a3 3 0 1 0 6 0 3 3 0 0 0-6 0zm5 0a2 2 0 1 1-4 0 2 2 0 0 1 4 0z"></path><path fill="red" d="M7 0c-.3 0-.627.022-.916.06l-.692.09-.153.68-.237 1.049a5.46 5.46 0 0 0-.21.087l-.909-.574-.59-.372-.552.425A7.498 7.498 0 0 0 1.445 2.74l-.425.553.372.59.574.908c-.03.069-.06.14-.087.21L.83 5.239l-.681.153-.09.692A7.522 7.522 0 0 0 0 7c0 .3.022.627.06.916l.09.692.68.153 1.049.237c.027.07.057.141.087.21l-.574.909-.372.59.425.552c.361.468.828.934 1.296 1.296l.553.425.59-.372.908-.574c.069.03.14.06.21.087l.237 1.048.153.681.692.09c.29.038.617.06.916.06.3 0 .627-.022.916-.06l.692-.09.153-.68.237-1.049a5.46 5.46 0 0 0 .21-.087l.909.574.59.372.552-.425a7.497 7.497 0 0 0 1.296-1.296l.425-.553-.372-.59-.574-.908c.03-.069.06-.14.087-.21l1.048-.237.681-.153.09-.692c.038-.29.06-.617.06-.916 0-.3-.022-.627-.06-.916l-.09-.692-.68-.153-1.049-.237a6.34 6.34 0 0 0-.087-.21l.574-.909.372-.59-.425-.552a7.497 7.497 0  0-1.296-1.296l-.553-.425-.59.372-.908.574a5.46 5.46 0 0 0-.21-.087L8.761.83 8.608.15 7.916.06A7.522 7.522 0 0 0 7 0zM2.647 5.853a4.49 4.49 0 0 1 .465-1.12L2.238 3.35c.32-.418.694-.792 1.112-1.112l1.383.874a4.49 4.49 0 0 1 1.12-.465l.361-1.596a6.056 6.056 0 0 1 1.572 0l.36 1.596c.398.105.774.262 1.12.465l1.384-.874c.418.32.792.694 1.112 1.112l-.874 1.383c.203.347.36.723.465 1.12l1.596.361a6.066 6.066 0 0 1 0 1.572l-1.596.36a4.473 4.473 0 0 1-.465 1.12l.874 1.384a6.03 6.03 0 0 1-1.112 1.112l-1.383-.874a4.49 4.49 0 0 1-1.12.465l-.361 1.596a6.066 6.066 0 0 1-1.572 0l-.36-1.596a4.473 4.473 0 0 1-1.12-.465l-1.384.874a6.033 6.033 0 0 1-1.112-1.112l.874-1.383a4.473 4.473 0 0 1-.465-1.12l-1.596-.361a6.056 6.056 0 0 1 0-1.572l1.596-.36z"></path></svg>
