<?xml version="1.0" encoding="UTF-8"?>
<svg width="78px" height="64px" viewBox="0 0 78 64" version="1.1" xmlns="http://www.w3.org/2000/svg" xmlns:xlink="http://www.w3.org/1999/xlink">
    <title>silent</title>
    <g id="Page-1" stroke="none" stroke-width="1" fill="none" fill-rule="evenodd">
        <g id="silent" transform="translate(2.000000, 0.000000)" fill="#35353D" fill-rule="nonzero">
            <g id="9458489141558965393" transform="translate(9.000000, 0.000000)">
                <path d="M29.39,58.66 C27.2119867,58.6596343 25.1282742,57.7712577 23.62,56.2 L17.23,56.2 C19.411421,60.9520686 24.1611613,63.9979932 29.39,63.9979932 C34.6188387,63.9979932 39.368579,60.9520686 41.55,56.2 L35.16,56.2 C33.6517258,57.7712577 31.5680133,58.6596343 29.39,58.66 Z" id="Path"></path>
                <path d="M53.43,41 L53.43,32.62 C53.415174,20.3840708 44.2192235,10.1080157 32.06,8.74 L32.06,2.67 C32.06,1.19539972 30.8646003,0 29.39,0 C27.9153997,0 26.72,1.19539972 26.72,2.67 L26.72,8.74 C14.5590399,10.1076281 5.35993895,20.3823956 5.34,32.62 L5.34,41 C5.28,45.18 4.67,48.2 0,48.2 L0,53.55 L58.78,53.55 L58.78,48.18 C54.11,48.18 53.49,45.16 53.43,41 Z M48.09,37.5 L48.09,48.18 L10.69,48.18 L10.69,32.62 C10.69,22.2922753 19.0622753,13.9200004 29.39,13.9200004 C39.7177247,13.9200004 48.09,22.2922753 48.09,32.62 L48.09,37.5 Z" id="Shape"></path>
            </g>
            <rect id="Rectangle" stroke="#FFFFFF" stroke-width="3" stroke-linejoin="bevel" transform="translate(36.811930, 32.272786) rotate(-29.000000) translate(-36.811930, -32.272786) " x="-2.18807044" y="27.2727856" width="78" height="10" rx="4"></rect>
        </g>
    </g>
</svg>