<svg width="12" height="12" viewBox="0 0 12 12" fill="none" xmlns="http://www.w3.org/2000/svg">
<path fill-rule="evenodd" clip-rule="evenodd" d="M7.44355 0.861538C6.80197 -0.28718 5.19803 -0.287179 4.55645 0.86154L0.225804 8.61539C-0.415773 9.76411 0.386201 11.2 1.66936 11.2H10.3306C11.6138 11.2 12.4158 9.7641 11.7742 8.61539L7.44355 0.861538ZM6.39688 3.2V7.04766H5.67031V3.2H6.39688ZM5.70938 8.80938C5.63646 8.72865 5.6 8.62839 5.6 8.5086C5.6 8.3836 5.63646 8.27943 5.70938 8.1961C5.7849 8.11276 5.89688 8.0711 6.04531 8.0711C6.19375 8.0711 6.30573 8.11276 6.38125 8.1961C6.45938 8.27943 6.49844 8.3836 6.49844 8.5086C6.49844 8.62839 6.45938 8.72865 6.38125 8.80938C6.30573 8.89011 6.19375 8.93047 6.04531 8.93047C5.89688 8.93047 5.7849 8.89011 5.70938 8.80938Z" fill="#C4C4C4"/>
</svg>
