<svg width="192" height="120" viewBox="0 0 192 120" fill="none" xmlns="http://www.w3.org/2000/svg">
<g clip-path="url(#clip0_38_233)">
<rect width="192" height="120" rx="8" fill="#374151"/>
<rect width="29.9081" height="120.167" fill="#111827"/>
<path d="M34.1806 65.6911C34.1806 65.1012 34.6588 64.6229 35.2488 64.6229H134.052C134.642 64.6229 135.121 65.1012 135.121 65.6911V120.167H34.1806V65.6911Z" fill="#111827"/>
<path d="M34.1806 12.818C34.1806 12.2281 34.6588 11.7499 35.2488 11.7499H134.052C134.642 11.7499 135.121 12.2281 135.121 12.818V61.4188C135.121 62.0087 134.642 62.4869 134.052 62.4869H35.2487C34.6588 62.4869 34.1806 62.0087 34.1806 61.4188V12.818Z" fill="#111827"/>
<path d="M137.257 12.818C137.257 12.2281 137.735 11.7499 138.325 11.7499H186.926C187.516 11.7499 187.994 12.2281 187.994 12.818V120.167H137.257V12.818Z" fill="#111827"/>
<path d="M29.9081 0H192.267V7.47704H29.9081V0Z" fill="#111827"/>
<rect x="3.63596" y="20.9054" width="22.8896" height="1.73574" rx="0.86787" fill="#374151"/>
<rect x="3.63596" y="30.7858" width="21.1013" height="1.73574" rx="0.86787" fill="#374151"/>
<rect x="3.63596" y="40.6658" width="22.8896" height="1.73574" rx="0.86787" fill="#374151"/>
<rect x="3.63596" y="25.8453" width="18.2401" height="1.73574" rx="0.86787" fill="#374151"/>
<rect x="3.63596" y="35.7258" width="15.0213" height="1.73574" rx="0.86787" fill="#374151"/>
<rect x="3.63596" y="45.6062" width="17.5248" height="1.73574" rx="0.86787" fill="#374151"/>
<path d="M16.979 8.54167L15.4309 7.64835C14.9243 7.35534 14.3036 7.35534 13.7971 7.64835L12.2418 8.54167C11.7424 8.83468 11.4285 9.37782 11.4285 9.95669V11.7505C11.4285 12.3365 11.7424 12.8725 12.2418 13.1655L13.79 14.066C14.2965 14.359 14.9172 14.359 15.4237 14.066L16.9719 13.1655C17.4784 12.8725 17.7852 12.3365 17.7852 11.7505V9.95669C17.7995 9.37782 17.4855 8.83468 16.979 8.54167ZM14.6104 12.4508C13.7329 12.4508 13.0195 11.7362 13.0195 10.8572C13.0195 9.97813 13.7329 9.26347 14.6104 9.26347C15.4879 9.26347 16.2085 9.97813 16.2085 10.8572C16.2085 11.7362 15.4951 12.4508 14.6104 12.4508Z" fill="url(#paint0_linear_38_233)"/>
</g>
<defs>
<linearGradient id="paint0_linear_38_233" x1="11.4285" y1="14.2857" x2="19.1" y2="12.1504" gradientUnits="userSpaceOnUse">
<stop stop-color="#7C53FF"/>
<stop offset="1" stop-color="#F796FF"/>
</linearGradient>
<clipPath id="clip0_38_233">
<rect width="192" height="120" rx="8" fill="white"/>
</clipPath>
</defs>
</svg>