<svg width="192" height="120" viewBox="0 0 192 120" fill="none" xmlns="http://www.w3.org/2000/svg">
<g clip-path="url(#clip0_38_220)">
<rect width="192" height="120" rx="8" fill="#E5E7EB"/>
<rect width="29.9081" height="120.167" fill="white"/>
<path d="M34.1807 65.6911C34.1807 65.1012 34.659 64.6229 35.2489 64.6229H134.053C134.643 64.6229 135.121 65.1012 135.121 65.6911V120.167H34.1807V65.6911Z" fill="white"/>
<path d="M34.1807 12.818C34.1807 12.2281 34.659 11.7499 35.2489 11.7499H134.053C134.643 11.7499 135.121 12.2281 135.121 12.818V61.4188C135.121 62.0087 134.643 62.4869 134.053 62.4869H35.2489C34.6589 62.4869 34.1807 62.0087 34.1807 61.4188V12.818Z" fill="white"/>
<path d="M137.257 12.818C137.257 12.2281 137.735 11.7499 138.325 11.7499H186.926C187.516 11.7499 187.994 12.2281 187.994 12.818V120.167H137.257V12.818Z" fill="white"/>
<path d="M29.9082 0H192.267V7.47704H29.9082V0Z" fill="white"/>
<rect x="4.375" y="20.9054" width="21.9029" height="1.73574" rx="0.86787" fill="#E5E7EB"/>
<rect x="4.375" y="30.7858" width="20.1918" height="1.73574" rx="0.86787" fill="#E5E7EB"/>
<rect x="4.375" y="40.6658" width="21.9029" height="1.73574" rx="0.86787" fill="#E5E7EB"/>
<rect x="4.375" y="25.8453" width="17.4539" height="1.73574" rx="0.86787" fill="#E5E7EB"/>
<rect x="4.375" y="35.7258" width="14.3738" height="1.73574" rx="0.86787" fill="#E5E7EB"/>
<rect x="4.375" y="45.6062" width="16.7694" height="1.73574" rx="0.86787" fill="#E5E7EB"/>
<path d="M16.9791 8.54167L15.4309 7.64835C14.9244 7.35534 14.3037 7.35534 13.7972 7.64835L12.2419 8.54167C11.7425 8.83468 11.4286 9.37782 11.4286 9.95669V11.7505C11.4286 12.3365 11.7425 12.8725 12.2419 13.1655L13.79 14.066C14.2966 14.359 14.9172 14.359 15.4238 14.066L16.9719 13.1655C17.4785 12.8725 17.7852 12.3365 17.7852 11.7505V9.95669C17.7995 9.37782 17.4856 8.83468 16.9791 8.54167ZM14.6105 12.4508C13.7329 12.4508 13.0195 11.7362 13.0195 10.8572C13.0195 9.97813 13.7329 9.26347 14.6105 9.26347C15.488 9.26347 16.2086 9.97813 16.2086 10.8572C16.2086 11.7362 15.4951 12.4508 14.6105 12.4508Z" fill="url(#paint0_linear_38_220)"/>
</g>
<rect x="0.5" y="0.5" width="191" height="119" rx="7.5" stroke="#E5E7EB"/>
<defs>
<linearGradient id="paint0_linear_38_220" x1="11.4286" y1="14.2857" x2="19.1" y2="12.1504" gradientUnits="userSpaceOnUse">
<stop stop-color="#7C53FF"/>
<stop offset="1" stop-color="#F796FF"/>
</linearGradient>
<clipPath id="clip0_38_220">
<rect width="192" height="120" rx="8" fill="white"/>
</clipPath>
</defs>
</svg>